<svg width="120" height="120" viewBox="0 0 120 120" xmlns="http://www.w3.org/2000/svg">
  <!-- 背景圆形 -->
  <circle cx="60" cy="60" r="60" fill="#4361ee" />
  
  <!-- 人物轮廓 - 头部和肩部 -->
  <path d="M60 30 C70 30 78 38 78 50 C78 62 70 70 60 70 C50 70 42 62 42 50 C42 38 50 30 60 30 Z" fill="#f6f8ff" />
  <path d="M60 75 C40 75 18 85 18 105 L102 105 C102 85 80 75 60 75 Z" fill="#f6f8ff" />
  
  <!-- 纹理装饰 - 轻微的图案 -->
  <path d="M90 40 C85 35 78 33 70 34" stroke="#3a0ca3" stroke-width="1.5" opacity="0.6" fill="none" />
  <path d="M30 40 C35 35 42 33 50 34" stroke="#3a0ca3" stroke-width="1.5" opacity="0.6" fill="none" />
</svg>