<svg width="60" height="60" xmlns="http://www.w3.org/2000/svg">
  <!-- 背景 -->
  <rect width="60" height="60" fill="#F3F0FF" rx="8" ry="8"/>
  
  <!-- 商业建筑群 -->
  <rect x="10" y="15" width="12" height="30" fill="#7209B7" rx="2" ry="2"/>
  <rect x="24" y="22" width="12" height="23" fill="#3A0CA3" rx="2" ry="2"/>
  <rect x="38" y="18" width="12" height="27" fill="#4361EE" rx="2" ry="2"/>
  
  <!-- 窗户 -->
  <rect x="13" y="20" width="6" height="4" fill="#FFFFFF" opacity="0.7"/>
  <rect x="13" y="27" width="6" height="4" fill="#FFFFFF" opacity="0.7"/>
  <rect x="13" y="34" width="6" height="4" fill="#FFFFFF" opacity="0.7"/>
  
  <rect x="27" y="26" width="6" height="4" fill="#FFFFFF" opacity="0.7"/>
  <rect x="27" y="33" width="6" height="4" fill="#FFFFFF" opacity="0.7"/>
  
  <rect x="41" y="23" width="6" height="4" fill="#FFFFFF" opacity="0.7"/>
  <rect x="41" y="30" width="6" height="4" fill="#FFFFFF" opacity="0.7"/>
  <rect x="41" y="37" width="6" height="4" fill="#FFFFFF" opacity="0.7"/>
  
  <!-- 虚拟连接线 -->
  <path d="M16 45 L30 48 L44 45" stroke="#4CC9F0" stroke-width="1.5" fill="none" stroke-dasharray="2"/>
</svg>
