<svg width="400" height="200" xmlns="http://www.w3.org/2000/svg">
  <!-- 渐变背景 -->
  <defs>
    <linearGradient id="nftGalleryGradient" x1="0%" y1="0%" x2="100%" y2="100%">
      <stop offset="0%" stop-color="#FF9E00" />
      <stop offset="50%" stop-color="#FF0058" />
      <stop offset="100%" stop-color="#7A00FF" />
    </linearGradient>
  </defs>
  <rect width="400" height="200" fill="url(#nftGalleryGradient)" opacity="0.2"/>
  
  <!-- 装饰元素 -->
  <circle cx="30" cy="30" r="20" fill="#FF0058" opacity="0.5"/>
  <circle cx="370" cy="170" r="20" fill="#7A00FF" opacity="0.5"/>
  
  <!-- 展馆建筑 -->
  <rect x="50" y="50" width="300" height="100" rx="5" fill="#ffffff" opacity="0.9"/>
  <rect x="170" y="150" width="60" height="30" fill="#7A00FF"/>
  <rect x="80" y="20" width="240" height="30" rx="10" fill="#FF0058"/>
  
  <!-- 展览作品1 - 圆形艺术 -->
  <rect x="80" y="70" width="70" height="60" rx="2" fill="#ffffff" stroke="#FF9E00" stroke-width="2"/>
  <circle cx="115" cy="100" r="20" fill="#FF0058"/>
  <circle cx="115" cy="100" r="12" fill="#FF9E00"/>
  <circle cx="115" cy="100" r="5" fill="#7A00FF"/>
  
  <!-- 展览作品2 - 抽象几何 -->
  <rect x="165" y="70" width="70" height="60" rx="2" fill="#ffffff" stroke="#FF9E00" stroke-width="2"/>
  <rect x="180" y="80" width="20" height="20" fill="#FF0058"/>
  <rect x="200" y="100" width="20" height="20" fill="#7A00FF"/>
  <path d="M180 100 L200 80 L220 100 L200 120 Z" fill="#FF9E00"/>
  
  <!-- 展览作品3 - 数字波浪 -->
  <rect x="250" y="70" width="70" height="60" rx="2" fill="#ffffff" stroke="#FF9E00" stroke-width="2"/>
  <path d="M260 100 Q270 80, 280 100 Q290 120, 300 100 Q310 80, 320 100" stroke="#7A00FF" stroke-width="3" fill="none"/>
  <path d="M260 110 Q270 90, 280 110 Q290 130, 300 110 Q310 90, 320 110" stroke="#FF0058" stroke-width="3" fill="none"/>
  
  
  <!-- 装饰元素 -->
  <circle cx="60" cy="40" r="8" fill="#FF9E00"/>
  <circle cx="340" cy="40" r="8" fill="#FF9E00"/>
  <polygon points="60,150 80,130 100,150" fill="#FF0058" opacity="0.7"/>
  <polygon points="300,150 320,130 340,150" fill="#7A00FF" opacity="0.7"/>
</svg>
