<svg width="400" height="200" xmlns="http://www.w3.org/2000/svg">
  <!-- 渐变背景 -->
  <defs>
    <linearGradient id="landGradient" x1="0%" y1="0%" x2="100%" y2="100%">
      <stop offset="0%" stop-color="#1CA7EC" />
      <stop offset="50%" stop-color="#1F2F98" />
      <stop offset="100%" stop-color="#5B16D0" />
    </linearGradient>
    <linearGradient id="buildingGradient" x1="0%" y1="0%" x2="0%" y2="100%">
      <stop offset="0%" stop-color="#41C9FF" />
      <stop offset="100%" stop-color="#1F2F98" />
    </linearGradient>
  </defs>
  <rect width="400" height="200" fill="url(#landGradient)" opacity="0.2"/>
  
  <!-- 天空 -->
  <rect x="0" y="0" width="400" height="80" fill="#5B16D0" opacity="0.1"/>
  <circle cx="50" cy="40" r="15" fill="#FF3CBD" opacity="0.6"/>
  <circle cx="350" cy="30" r="10" fill="#41C9FF" opacity="0.6"/>
  
  <!-- 虚拟土地网格 -->
  <g stroke="#41C9FF" stroke-width="1">
    <line x1="50" y1="140" x2="350" y2="140"/>
    <line x1="50" y1="160" x2="350" y2="160"/>
    <line x1="50" y1="180" x2="350" y2="180"/>
    
    <line x1="50" y1="140" x2="50" y2="180"/>
    <line x1="90" y1="140" x2="90" y2="180"/>
    <line x1="130" y1="140" x2="130" y2="180"/>
    <line x1="170" y1="140" x2="170" y2="180"/>
    <line x1="210" y1="140" x2="210" y2="180"/>
    <line x1="250" y1="140" x2="250" y2="180"/>
    <line x1="290" y1="140" x2="290" y2="180"/>
    <line x1="330" y1="140" x2="330" y2="180"/>
    <line x1="350" y1="140" x2="350" y2="180"/>
  </g>
  
  <!-- 地块区域 - 发光效果 -->
  <rect x="90" y="140" width="40" height="20" fill="#41C9FF" opacity="0.5"/>
  <rect x="90" y="140" width="40" height="5" fill="#41C9FF" opacity="0.8"/>
  
  <rect x="170" y="160" width="40" height="20" fill="#FF3CBD" opacity="0.5"/>
  <rect x="170" y="160" width="40" height="5" fill="#FF3CBD" opacity="0.8"/>
  
  <rect x="250" y="140" width="80" height="40" fill="#FFD32B" opacity="0.5"/>
  <rect x="250" y="140" width="80" height="5" fill="#FFD32B" opacity="0.8"/>
  
  <!-- 建筑群 - 未来感 -->
  <!-- 主楼 -->
  <rect x="140" y="50" width="120" height="90" fill="url(#buildingGradient)"/>
  <rect x="140" y="50" width="120" height="10" fill="#41C9FF"/>
  <rect x="140" y="70" width="120" height="10" fill="#41C9FF" opacity="0.8"/>
  <rect x="140" y="90" width="120" height="10" fill="#41C9FF" opacity="0.6"/>
  <rect x="140" y="110" width="120" height="10" fill="#41C9FF" opacity="0.4"/>
  <rect x="140" y="130" width="120" height="10" fill="#41C9FF" opacity="0.2"/>
  
  <!-- 左侧塔楼 -->
  <rect x="90" y="80" width="40" height="60" fill="#1F2F98"/>
  <rect x="90" y="90" width="40" height="10" fill="#41C9FF" opacity="0.7"/>
  <rect x="90" y="110" width="40" height="10" fill="#41C9FF" opacity="0.5"/>
  <rect x="90" y="130" width="40" height="10" fill="#41C9FF" opacity="0.3"/>
  <polygon points="90,80 110,60 130,80" fill="#5B16D0"/>
  
  <!-- 右侧塔楼 -->
  <rect x="270" y="70" width="40" height="70" fill="#1F2F98"/>
  <rect x="270" y="80" width="40" height="10" fill="#41C9FF" opacity="0.7"/>
  <rect x="270" y="100" width="40" height="10" fill="#41C9FF" opacity="0.5"/>
  <rect x="270" y="120" width="40" height="10" fill="#41C9FF" opacity="0.3"/>
  <polygon points="270,70 290,50 310,70" fill="#5B16D0"/>
  
  <!-- 全息投影效果 -->
  <circle cx="200" cy="40" r="15" fill="#FF3CBD" opacity="0.6"/>
  <path d="M195 35 L205 45 M195 45 L205 35" stroke="#FFD32B" stroke-width="2"/>
  
  <!-- 飞行器 -->
  <ellipse cx="80" cy="60" rx="15" ry="5" fill="#FF3CBD" opacity="0.6"/>
  <ellipse cx="80" cy="60" rx="10" ry="3" fill="#FFD32B"/>
  
  <ellipse cx="320" cy="50" rx="15" ry="5" fill="#FF3CBD" opacity="0.6"/>
  <ellipse cx="320" cy="50" rx="10" ry="3" fill="#FFD32B"/>
  
</svg>