<svg width="400" height="200" xmlns="http://www.w3.org/2000/svg">
  <!-- 渐变背景 -->
  <defs>
    <linearGradient id="gameGradient" x1="0%" y1="0%" x2="100%" y2="100%">
      <stop offset="0%" stop-color="#6E45E2" />
      <stop offset="50%" stop-color="#89D4CF" />
      <stop offset="100%" stop-color="#FD6585" />
    </linearGradient>
    <radialGradient id="battleGlow" cx="50%" cy="50%" r="50%" fx="50%" fy="50%">
      <stop offset="0%" stop-color="#FD6585" stop-opacity="0.8"/>
      <stop offset="100%" stop-color="#6E45E2" stop-opacity="0"/>
    </radialGradient>
  </defs>
  <rect width="400" height="200" fill="url(#gameGradient)" opacity="0.3"/>
  <circle cx="200" cy="100" r="70" fill="url(#battleGlow)"/>
  
  <!-- 游戏世界 -->
  <path d="M50 100 Q200 50, 350 100 Q200 150, 50 100" fill="#6E45E2" opacity="0.5" stroke="#89D4CF" stroke-width="2"/>
  
  <!-- 游戏角色 - 勇士 -->
  <circle cx="125" cy="100" r="15" fill="#00D2FF"/>
  <polygon points="125,80 115,105 135,105" fill="#0091FF"/>
  <rect x="115" y="105" width="20" height="15" fill="#0091FF"/>
  <rect x="117" y="120" width="5" height="10" fill="#00D2FF"/>
  <rect x="128" y="120" width="5" height="10" fill="#00D2FF"/>
  <!-- 勇士武器 -->
  <rect x="145" y="95" width="15" height="3" fill="#FFA9E7"/>
  <polygon points="160,90 160,103 170,97" fill="#FFA9E7"/>
  
  <!-- 怪物 - 龙 -->
  <circle cx="275" cy="100" r="18" fill="#FD6585"/>
  <polygon points="265,90 285,90 275,80" fill="#FFA9E7"/>
  <polygon points="265,110 285,110 275,120" fill="#FFA9E7"/>
  <rect x="265" y="95" width="5" height="10" fill="#FD6585"/>
  <rect x="285" y="95" width="5" height="10" fill="#FD6585" transform="scale(-1, 1) translate(-550, 0)"/>
  <!-- 龙火 -->
  <path d="M255 100 Q245 95, 240 100 Q245 105, 255 100" fill="#FF5B94" opacity="0.8"/>
  <path d="M240 100 Q230 95, 225 100 Q230 105, 240 100" fill="#FF5B94" opacity="0.6"/>
  <path d="M225 100 Q215 95, 210 100 Q215 105, 225 100" fill="#FF5B94" opacity="0.4"/>
  
  <!-- 战斗效果 -->
  <path d="M145 97 L190 97" stroke="#FFED99" stroke-width="1" stroke-dasharray="2,2"/>
  <circle cx="190" cy="97" r="5" fill="#FFED99"/>
  <path d="M190 95 L195 90 M190 97 L198 97 M190 99 L195 104" stroke="#FFED99" stroke-width="1"/>
  
  <!-- 游戏UI元素 -->
  <rect x="50" y="30" width="100" height="10" rx="5" fill="#6BFFB8"/>
  <rect x="50" y="30" width="65" height="10" rx="5" fill="#00D2FF"/>
  
  <rect x="250" y="30" width="100" height="10" rx="5" fill="#FFA9E7"/>
  <rect x="250" y="30" width="35" height="10" rx="5" fill="#FD6585"/>
  
  <!-- 区块链元素 -->
  <g transform="translate(160, 140)">
    <rect x="0" y="0" width="80" height="30" rx="5" fill="#6E45E2"/>
    <rect x="5" y="5" width="70" height="20" rx="3" fill="#89D4CF"/>
  </g>
  
  <!-- 游戏控制元素 -->
  <circle cx="60" cy="170" r="15" fill="#FFED99"/>
  <polygon points="55,170 68,162 68,178" fill="#FD6585"/>
  
  <circle cx="340" cy="170" r="15" fill="#FFED99"/>
  <rect x="332" y="162" width="16" height="16" rx="2" fill="#FD6585"/>
</svg>